G04 #@! TF.GenerationSoftware,KiCad,Pcbnew,(5.1.4)-1*
G04 #@! TF.CreationDate,2019-09-04T19:32:59+02:00*
G04 #@! TF.ProjectId,Clima-PCB,436c696d-612d-4504-9342-2e6b69636164,rev?*
G04 #@! TF.SameCoordinates,Original*
G04 #@! TF.FileFunction,Legend,Top*
G04 #@! TF.FilePolarity,Positive*
%FSLAX46Y46*%
G04 Gerber Fmt 4.6, Leading zero omitted, Abs format (unit mm)*
G04 Created by KiCad (PCBNEW (5.1.4)-1) date 2019-09-04 19:32:59*
%MOMM*%
%LPD*%
G04 APERTURE LIST*
%ADD10C,0.200000*%
%ADD11C,0.300000*%
%ADD12C,0.120000*%
G04 APERTURE END LIST*
D10*
X143098571Y-110017142D02*
X143765238Y-110017142D01*
X144050952Y-111064761D02*
X143098571Y-111064761D01*
X143098571Y-109064761D01*
X144050952Y-109064761D01*
X144812857Y-110969523D02*
X145098571Y-111064761D01*
X145574761Y-111064761D01*
X145765238Y-110969523D01*
X145860476Y-110874285D01*
X145955714Y-110683809D01*
X145955714Y-110493333D01*
X145860476Y-110302857D01*
X145765238Y-110207619D01*
X145574761Y-110112380D01*
X145193809Y-110017142D01*
X145003333Y-109921904D01*
X144908095Y-109826666D01*
X144812857Y-109636190D01*
X144812857Y-109445714D01*
X144908095Y-109255238D01*
X145003333Y-109160000D01*
X145193809Y-109064761D01*
X145670000Y-109064761D01*
X145955714Y-109160000D01*
X146812857Y-111064761D02*
X146812857Y-109064761D01*
X147574761Y-109064761D01*
X147765238Y-109160000D01*
X147860476Y-109255238D01*
X147955714Y-109445714D01*
X147955714Y-109731428D01*
X147860476Y-109921904D01*
X147765238Y-110017142D01*
X147574761Y-110112380D01*
X146812857Y-110112380D01*
X148812857Y-110302857D02*
X150336666Y-110302857D01*
X151670000Y-109064761D02*
X151860476Y-109064761D01*
X152050952Y-109160000D01*
X152146190Y-109255238D01*
X152241428Y-109445714D01*
X152336666Y-109826666D01*
X152336666Y-110302857D01*
X152241428Y-110683809D01*
X152146190Y-110874285D01*
X152050952Y-110969523D01*
X151860476Y-111064761D01*
X151670000Y-111064761D01*
X151479523Y-110969523D01*
X151384285Y-110874285D01*
X151289047Y-110683809D01*
X151193809Y-110302857D01*
X151193809Y-109826666D01*
X151289047Y-109445714D01*
X151384285Y-109255238D01*
X151479523Y-109160000D01*
X151670000Y-109064761D01*
X154241428Y-111064761D02*
X153098571Y-111064761D01*
X153670000Y-111064761D02*
X153670000Y-109064761D01*
X153479523Y-109350476D01*
X153289047Y-109540952D01*
X153098571Y-109636190D01*
X157765238Y-110874285D02*
X157670000Y-110969523D01*
X157384285Y-111064761D01*
X157193809Y-111064761D01*
X156908095Y-110969523D01*
X156717619Y-110779047D01*
X156622380Y-110588571D01*
X156527142Y-110207619D01*
X156527142Y-109921904D01*
X156622380Y-109540952D01*
X156717619Y-109350476D01*
X156908095Y-109160000D01*
X157193809Y-109064761D01*
X157384285Y-109064761D01*
X157670000Y-109160000D01*
X157765238Y-109255238D01*
X159574761Y-111064761D02*
X158622380Y-111064761D01*
X158622380Y-109064761D01*
X160241428Y-111064761D02*
X160241428Y-109064761D01*
X161193809Y-111064761D02*
X161193809Y-109064761D01*
X161860476Y-110493333D01*
X162527142Y-109064761D01*
X162527142Y-111064761D01*
X163384285Y-110493333D02*
X164336666Y-110493333D01*
X163193809Y-111064761D02*
X163860476Y-109064761D01*
X164527142Y-111064761D01*
X143146190Y-114264761D02*
X143146190Y-112264761D01*
X143812857Y-113693333D01*
X144479523Y-112264761D01*
X144479523Y-114264761D01*
X146289047Y-114264761D02*
X146289047Y-113217142D01*
X146193809Y-113026666D01*
X146003333Y-112931428D01*
X145622380Y-112931428D01*
X145431904Y-113026666D01*
X146289047Y-114169523D02*
X146098571Y-114264761D01*
X145622380Y-114264761D01*
X145431904Y-114169523D01*
X145336666Y-113979047D01*
X145336666Y-113788571D01*
X145431904Y-113598095D01*
X145622380Y-113502857D01*
X146098571Y-113502857D01*
X146289047Y-113407619D01*
X147241428Y-112931428D02*
X147241428Y-114264761D01*
X147241428Y-113121904D02*
X147336666Y-113026666D01*
X147527142Y-112931428D01*
X147812857Y-112931428D01*
X148003333Y-113026666D01*
X148098571Y-113217142D01*
X148098571Y-114264761D01*
X149908095Y-112931428D02*
X149908095Y-114264761D01*
X149050952Y-112931428D02*
X149050952Y-113979047D01*
X149146190Y-114169523D01*
X149336666Y-114264761D01*
X149622380Y-114264761D01*
X149812857Y-114169523D01*
X149908095Y-114074285D01*
X151622380Y-114169523D02*
X151431904Y-114264761D01*
X151050952Y-114264761D01*
X150860476Y-114169523D01*
X150765238Y-113979047D01*
X150765238Y-113217142D01*
X150860476Y-113026666D01*
X151050952Y-112931428D01*
X151431904Y-112931428D01*
X151622380Y-113026666D01*
X151717619Y-113217142D01*
X151717619Y-113407619D01*
X150765238Y-113598095D01*
X152860476Y-114264761D02*
X152670000Y-114169523D01*
X152574761Y-113979047D01*
X152574761Y-112264761D01*
X155812857Y-113217142D02*
X155146190Y-113217142D01*
X155146190Y-114264761D02*
X155146190Y-112264761D01*
X156098571Y-112264761D01*
X157622380Y-114169523D02*
X157431904Y-114264761D01*
X157050952Y-114264761D01*
X156860476Y-114169523D01*
X156765238Y-113979047D01*
X156765238Y-113217142D01*
X156860476Y-113026666D01*
X157050952Y-112931428D01*
X157431904Y-112931428D01*
X157622380Y-113026666D01*
X157717619Y-113217142D01*
X157717619Y-113407619D01*
X156765238Y-113598095D01*
X158574761Y-114264761D02*
X158574761Y-112264761D01*
X159431904Y-114264761D02*
X159431904Y-113217142D01*
X159336666Y-113026666D01*
X159146190Y-112931428D01*
X158860476Y-112931428D01*
X158670000Y-113026666D01*
X158574761Y-113121904D01*
X160384285Y-114264761D02*
X160384285Y-112931428D01*
X160384285Y-113312380D02*
X160479523Y-113121904D01*
X160574761Y-113026666D01*
X160765238Y-112931428D01*
X160955714Y-112931428D01*
X162384285Y-114169523D02*
X162193809Y-114264761D01*
X161812857Y-114264761D01*
X161622380Y-114169523D01*
X161527142Y-113979047D01*
X161527142Y-113217142D01*
X161622380Y-113026666D01*
X161812857Y-112931428D01*
X162193809Y-112931428D01*
X162384285Y-113026666D01*
X162479523Y-113217142D01*
X162479523Y-113407619D01*
X161527142Y-113598095D01*
X163336666Y-112931428D02*
X163336666Y-114264761D01*
X163336666Y-113121904D02*
X163431904Y-113026666D01*
X163622380Y-112931428D01*
X163908095Y-112931428D01*
X164098571Y-113026666D01*
X164193809Y-113217142D01*
X164193809Y-114264761D01*
D11*
X159375188Y-90289326D02*
X159803759Y-90432183D01*
X159946616Y-90575040D01*
X160089473Y-90860754D01*
X160089473Y-91289326D01*
X159946616Y-91575040D01*
X159803759Y-91717897D01*
X159518045Y-91860754D01*
X158375188Y-91860754D01*
X158375188Y-88860754D01*
X159375188Y-88860754D01*
X159660902Y-89003612D01*
X159803759Y-89146469D01*
X159946616Y-89432183D01*
X159946616Y-89717897D01*
X159803759Y-90003612D01*
X159660902Y-90146469D01*
X159375188Y-90289326D01*
X158375188Y-90289326D01*
X161375188Y-91860754D02*
X161375188Y-88860754D01*
X162375188Y-91003612D01*
X163375188Y-88860754D01*
X163375188Y-91860754D01*
X164803759Y-90289326D02*
X165803759Y-90289326D01*
X166232331Y-91860754D02*
X164803759Y-91860754D01*
X164803759Y-88860754D01*
X166232331Y-88860754D01*
X158518045Y-93946469D02*
X158660902Y-93803612D01*
X158946616Y-93660754D01*
X159660902Y-93660754D01*
X159946616Y-93803612D01*
X160089473Y-93946469D01*
X160232331Y-94232183D01*
X160232331Y-94517897D01*
X160089473Y-94946469D01*
X158375188Y-96660754D01*
X160232331Y-96660754D01*
X161946616Y-94946469D02*
X161660902Y-94803612D01*
X161518045Y-94660754D01*
X161375188Y-94375040D01*
X161375188Y-94232183D01*
X161518045Y-93946469D01*
X161660902Y-93803612D01*
X161946616Y-93660754D01*
X162518045Y-93660754D01*
X162803759Y-93803612D01*
X162946616Y-93946469D01*
X163089473Y-94232183D01*
X163089473Y-94375040D01*
X162946616Y-94660754D01*
X162803759Y-94803612D01*
X162518045Y-94946469D01*
X161946616Y-94946469D01*
X161660902Y-95089326D01*
X161518045Y-95232183D01*
X161375188Y-95517897D01*
X161375188Y-96089326D01*
X161518045Y-96375040D01*
X161660902Y-96517897D01*
X161946616Y-96660754D01*
X162518045Y-96660754D01*
X162803759Y-96517897D01*
X162946616Y-96375040D01*
X163089473Y-96089326D01*
X163089473Y-95517897D01*
X162946616Y-95232183D01*
X162803759Y-95089326D01*
X162518045Y-94946469D01*
X164946616Y-93660754D02*
X165232331Y-93660754D01*
X165518045Y-93803612D01*
X165660902Y-93946469D01*
X165803759Y-94232183D01*
X165946616Y-94803612D01*
X165946616Y-95517897D01*
X165803759Y-96089326D01*
X165660902Y-96375040D01*
X165518045Y-96517897D01*
X165232331Y-96660754D01*
X164946616Y-96660754D01*
X164660902Y-96517897D01*
X164518045Y-96375040D01*
X164375188Y-96089326D01*
X164232331Y-95517897D01*
X164232331Y-94803612D01*
X164375188Y-94232183D01*
X164518045Y-93946469D01*
X164660902Y-93803612D01*
X164946616Y-93660754D01*
D12*
X170180000Y-97790000D02*
X170180000Y-95250000D01*
X157480000Y-97790000D02*
X170180000Y-97790000D01*
X157480000Y-87630000D02*
X157480000Y-97790000D01*
X170240000Y-87570000D02*
X157480000Y-87630000D01*
X171450000Y-85090000D02*
X171450000Y-69850000D01*
X147320000Y-85090000D02*
X171450000Y-85090000D01*
X147320000Y-83820000D02*
X147320000Y-85090000D01*
X147320000Y-69850000D02*
X147320000Y-83820000D01*
X171450000Y-69850000D02*
X147320000Y-69850000D01*
X170240000Y-97850000D02*
X168910000Y-97850000D01*
X170240000Y-96520000D02*
X170240000Y-97850000D01*
X170240000Y-95250000D02*
X167580000Y-95250000D01*
X167580000Y-95250000D02*
X167580000Y-87570000D01*
X170240000Y-95250000D02*
X170240000Y-87570000D01*
X170240000Y-87570000D02*
X167580000Y-87570000D01*
X154880000Y-63560000D02*
X154880000Y-62230000D01*
X156210000Y-63560000D02*
X154880000Y-63560000D01*
X157480000Y-63560000D02*
X157480000Y-60900000D01*
X157480000Y-60900000D02*
X160080000Y-60900000D01*
X157480000Y-63560000D02*
X160080000Y-63560000D01*
X160080000Y-63560000D02*
X160080000Y-60900000D01*
X165040000Y-82610000D02*
X170240000Y-82610000D01*
X165040000Y-74930000D02*
X165040000Y-82610000D01*
X170240000Y-72330000D02*
X170240000Y-82610000D01*
X165040000Y-74930000D02*
X167640000Y-74930000D01*
X167640000Y-74930000D02*
X167640000Y-72330000D01*
X167640000Y-72330000D02*
X170240000Y-72330000D01*
X165040000Y-73660000D02*
X165040000Y-72330000D01*
X165040000Y-72330000D02*
X166370000Y-72330000D01*
D11*
X148678925Y-61015006D02*
X149917021Y-61015006D01*
X149250354Y-61776911D01*
X149536068Y-61776911D01*
X149726545Y-61872149D01*
X149821783Y-61967387D01*
X149917021Y-62157864D01*
X149917021Y-62634054D01*
X149821783Y-62824530D01*
X149726545Y-62919768D01*
X149536068Y-63015006D01*
X148964640Y-63015006D01*
X148774164Y-62919768D01*
X148678925Y-62824530D01*
X150488449Y-61015006D02*
X151155116Y-63015006D01*
X151821783Y-61015006D01*
X152488449Y-62253102D02*
X154012259Y-62253102D01*
X153250354Y-63015006D02*
X153250354Y-61491197D01*
X161059878Y-62253102D02*
X162583687Y-62253102D01*
X148082857Y-82335714D02*
X149082857Y-82335714D01*
X149511428Y-83907142D02*
X148082857Y-83907142D01*
X148082857Y-80907142D01*
X149511428Y-80907142D01*
X150654285Y-83764285D02*
X151082857Y-83907142D01*
X151797142Y-83907142D01*
X152082857Y-83764285D01*
X152225714Y-83621428D01*
X152368571Y-83335714D01*
X152368571Y-83050000D01*
X152225714Y-82764285D01*
X152082857Y-82621428D01*
X151797142Y-82478571D01*
X151225714Y-82335714D01*
X150940000Y-82192857D01*
X150797142Y-82050000D01*
X150654285Y-81764285D01*
X150654285Y-81478571D01*
X150797142Y-81192857D01*
X150940000Y-81050000D01*
X151225714Y-80907142D01*
X151940000Y-80907142D01*
X152368571Y-81050000D01*
X153654285Y-83907142D02*
X153654285Y-80907142D01*
X154797142Y-80907142D01*
X155082857Y-81050000D01*
X155225714Y-81192857D01*
X155368571Y-81478571D01*
X155368571Y-81907142D01*
X155225714Y-82192857D01*
X155082857Y-82335714D01*
X154797142Y-82478571D01*
X153654285Y-82478571D01*
X156654285Y-82764285D02*
X158940000Y-82764285D01*
X161940000Y-83907142D02*
X160225714Y-83907142D01*
X161082857Y-83907142D02*
X161082857Y-80907142D01*
X160797142Y-81335714D01*
X160511428Y-81621428D01*
X160225714Y-81764285D01*
M02*
