G04 #@! TF.GenerationSoftware,KiCad,Pcbnew,(5.1.4)-1*
G04 #@! TF.CreationDate,2019-09-04T19:32:59+02:00*
G04 #@! TF.ProjectId,Clima-PCB,436c696d-612d-4504-9342-2e6b69636164,rev?*
G04 #@! TF.SameCoordinates,Original*
G04 #@! TF.FileFunction,Copper,L1,Top*
G04 #@! TF.FilePolarity,Positive*
%FSLAX46Y46*%
G04 Gerber Fmt 4.6, Leading zero omitted, Abs format (unit mm)*
G04 Created by KiCad (PCBNEW (5.1.4)-1) date 2019-09-04 19:32:59*
%MOMM*%
%LPD*%
G04 APERTURE LIST*
%ADD10O,1.700000X1.700000*%
%ADD11R,1.700000X1.700000*%
%ADD12C,0.800000*%
%ADD13C,0.250000*%
G04 APERTURE END LIST*
D10*
X168910000Y-88900000D03*
X168910000Y-91440000D03*
X168910000Y-93980000D03*
D11*
X168910000Y-96520000D03*
D10*
X158750000Y-62230000D03*
D11*
X156210000Y-62230000D03*
X166370000Y-73660000D03*
D10*
X168910000Y-73660000D03*
X166370000Y-76200000D03*
X168910000Y-76200000D03*
X166370000Y-78740000D03*
X168910000Y-78740000D03*
X166370000Y-81280000D03*
X168910000Y-81280000D03*
D12*
X162560000Y-88900000D03*
D13*
X156210000Y-62230000D02*
X156210000Y-64770000D01*
X156210000Y-64770000D02*
X157480000Y-66040000D01*
X157480000Y-66040000D02*
X167640000Y-66040000D01*
X167640000Y-66040000D02*
X168910000Y-67310000D01*
X168910000Y-73660000D02*
X170180000Y-74930000D01*
X170180000Y-74930000D02*
X170180000Y-77470000D01*
X170180000Y-77470000D02*
X168910000Y-78740000D01*
X168910000Y-78740000D02*
X170180000Y-80010000D01*
X170180000Y-80010000D02*
X170180000Y-95250000D01*
X170180000Y-95250000D02*
X168910000Y-96520000D01*
X168910000Y-73660000D02*
X168910000Y-67310000D01*
X166370000Y-76200000D02*
X163830000Y-76200000D01*
X163830000Y-76200000D02*
X162560000Y-77470000D01*
X162560000Y-77470000D02*
X162560000Y-88900000D01*
X162560000Y-88900000D02*
X162560000Y-88900000D01*
X166370000Y-78740000D02*
X165100000Y-78740000D01*
X165100000Y-78740000D02*
X163830000Y-80010000D01*
X163830000Y-80010000D02*
X163830000Y-90170000D01*
X165100000Y-91440000D02*
X168910000Y-91440000D01*
X163830000Y-90170000D02*
X165100000Y-91440000D01*
M02*
